<svg xmlns="http://www.w3.org/2000/svg" viewBox="0 0 310.69 102.19"><defs><style>.cls-1{fill:#ffffff;}</style></defs><title>Recurso 1</title><g id="Capa_2" data-name="Capa 2"><g id="Capa_1-2" data-name="Capa 1"><path class="cls-1" d="M152.25,90.18H127.06l-4.35,12H108.17L133,38.87h12.94l25.61,63.32H156.67ZM131.33,78.24H148L139.59,55.6Z"/><path class="cls-1" d="M222.57,89.47v12.72H174.68v-2L201.1,51.58H176.21V38.87h45.3v2.52L195.34,89.47Z"/><path class="cls-1" d="M232.31,38.87H246v63.32h-13.7Z"/><path class="cls-1" d="M283,80.58h-8.79v21.61H260.53V38.87h25.55c12.68,0,22.14,8.73,22.14,20.94a20.07,20.07,0,0,1-11.54,18.44l14,23.94H295.38Zm-8.79-12.66h11c5.73,0,9.15-3.44,9.15-8.2s-3.42-8.2-9.15-8.2h-11Z"/><path class="cls-1" d="M61.54,35.19S31.63,33.05,23.73,70.5c.16-6.54.52-13.6.84-20,.49-9.77.87-17.49.52-21.36a17.72,17.72,0,0,0-3.64-9.35,21.11,21.11,0,0,0-6.13-5.33A27.52,27.52,0,0,0,7.25,11.3,6.1,6.1,0,0,0,5,23.29,16,16,0,0,1,9.12,25c3.16,1.87,3.69,3.91,3.82,5.28.27,3-.13,11.09-.56,19.64-.45,9-1,19.16-.94,27.71,0,13.74,4.34,21,6.73,23.45.47.46,47.88,1.15,47.88,1.15s5.43-10.36-14.63-10.36l30-21.76.31,25c0,4.72,2.6,7.12,5.43,7.12a6.61,6.61,0,0,0,6.57-6.43c.46-14.3,1.69-38.47,1.69-38.47S69,62.27,61.54,35.19Z"/><path class="cls-1" d="M108.06,1.12,95.23,12.53a19.19,19.19,0,0,0-15,0L67.37,1.12l1.5,25.72a19.59,19.59,0,0,0-.3,3.27,19.13,19.13,0,0,0,38.25,0,18.61,18.61,0,0,0-.28-3.1ZM80.2,33.72a3.65,3.65,0,1,1,3.65-3.64A3.64,3.64,0,0,1,80.2,33.72Zm15,0a3.65,3.65,0,1,1,3.65-3.64A3.64,3.64,0,0,1,95.22,33.72Z"/><path class="cls-1" d="M164.18,11.65c-.91-.29-1.32,1.66-1.53,2.11H162c0,.5.58.58.95.71a1.07,1.07,0,0,1-1.16.54l-1.16,3.65.5-.25.87-2.66.25.67-.59,2.07c-.2.75-.58,1.33-1,1.33-.58,0-.46.74-.62,1.28l-.29-.37-.25.25a3.67,3.67,0,0,1,.62,1.45c0,.95-1,2.74-1.74,4.35l-.7-.62a1.08,1.08,0,0,1-.34.17,1.27,1.27,0,0,1-.41,0c-1.58,0-3.4-2.66-3.4-4.15,0-1.7,3.4-7.79,4.89-11.07l-.12-.33c-1.2.75-4.15,1.7-4.27,3l-7.34,6.26c-.71-1-1.2-.25-2.07-.25-1.08,0-1.7-2-2.12-3.4.62-2,1.66-4.56,2.65-6.88l-.41-.83a23.23,23.23,0,0,0-4.35,5.3c-1.74,2.82-4.11,7.17-5.89,10.41-.41-.17-.08-.87.21-1.45-.46-.13-.79.58-1.08,1.37a3.38,3.38,0,0,0,0,2.32,1,1,0,0,1-.66.25c-1.7,0-4.07-3-4.07-3.94s3.49-6.51,5.39-9.5c2.16-3.44,4.27-6.63,7.09-8.74.79-1.21,2.49-3.61,4-3.61,2.32,0,3.15,2.9,4.11,5.22a7.08,7.08,0,0,0,.33,3.61c1.33-.91,3-2.32,4.31-3.07.29-.16.66.08.87.42a1,1,0,0,0,.37-1.16c2.2-1.37,5-2.78,5.89-2.78a5.37,5.37,0,0,1,2.65,1.37c.71,1.65,1.5,3,1.5,4.39C165.43,10.32,164.93,11.9,164.18,11.65Zm-29.06,9.91-.45.79.24.24.46-.87Zm.21-.46.25.21c.21-.42.41-.58.12-.79Zm24.21-2.24c0,.21,0,.42,0,.5.33-.25.54-1,.17-1.2A1.32,1.32,0,0,0,159.54,18.86Zm2.07-4.6h0a5.78,5.78,0,0,0-1.37,3.19,4.31,4.31,0,0,0,.09.71h0Zm.67-2.32-.46,1.28c.46-.33.83-.74.71-1Zm.54-.29.49-1.29c-.58,0-.62.54-.95,1.29Zm.62,2.11H163a2.27,2.27,0,0,1,.79-.83Z"/><path class="cls-1" d="M181.64,7.38h-.46c-1.11,1.58-1.78,4.48-3.68,5.51l.16.5L176,14.3c-1.61,2.32-2.32,5.19-3.23,7.55-.12.33-.66,1-.12,1.16.12,0,.41-.83.45-1,1-2.16,1.66-5.39,3.15-7.09.58-.21.17.29.09.41-1.45,2.45-2.16,5.27-3.36,8.17a8.77,8.77,0,0,0-.91,4.56A12.13,12.13,0,0,1,170,27.2V25.87a1.32,1.32,0,0,0-.45,1,6.42,6.42,0,0,1-2.28-3.1C167.3,16.29,175,6.09,178,.62A1.7,1.7,0,0,1,179.24,0a5.32,5.32,0,0,1,1.28.29v1A2.5,2.5,0,0,1,182,3.52,25.38,25.38,0,0,1,181.64,7.38Zm-9.7,16.54L171.48,25c0,.13.09.54.34.13l.58-1.46C171.82,23.13,172,23.8,171.94,23.92Z"/><path class="cls-1" d="M194.21,14.51c.74-.7,3.1-7,8.33-9.62.45-.21.21-.62.7-.95a11.6,11.6,0,0,1,7.59-2.12c2.65.71,2.11,2.49,3.9,3.57a2,2,0,0,1-.79,1.37,1.76,1.76,0,0,1,.83.7.62.62,0,0,1-.37.46,3.42,3.42,0,0,0-2.16-1c-4.56,0-14.47,7.42-13.76,13.31a19.93,19.93,0,0,0,8.45-.87,4,4,0,0,0,1.45-1.45,34.87,34.87,0,0,1,4-5,3.43,3.43,0,0,0,.58.42c-.33.37-.78,1.16-.7,1.45l1-1.25c.87.42,1.74.71,1.9,2.37,1,0-.2,1.95.17,2.4a50.71,50.71,0,0,1-4.6,4.27c-.38,1.12-.87,2.57-1.5,4.06l.17.29A31.82,31.82,0,0,0,211,23.17l.46-.2c-1.08,2.65-2.11,6-3.52,8.5-.38.66.16,1-.21,1.7S207,35,206.14,35h-.7v-.54a2.4,2.4,0,0,1-3-1.82l1-1.83a1.75,1.75,0,0,0-1.16,1.33h-.7c1.07-2.28,1.86-4.1,2.65-5.85.66-1.45,1.12-.41,1.12-2.69l-.75.25c-.58-.71-2-.25-3,.54-3.53,0-5.35-.67-6.89-3.65h-.49a7.85,7.85,0,0,1,.29-5.68Zm3.85,3.94a1.71,1.71,0,0,0-.5,1A.57.57,0,0,0,198,20Zm15.13-4.19-.83,1.12a3.3,3.3,0,0,0,1.45-.83C213.61,14.14,213.4,14,213.19,14.26Z"/><path class="cls-1" d="M236.49,18.45c-.33.7-.2,2.53-1.07,3.36.58.33.25,1.36-.29,1.86.25.62.41,1.08-.46,2.24,0,.17.37,0,.46-.12a14.29,14.29,0,0,1-.83,3.77c-1.29,0-2.45-1.24-3.11-1,0-.82-.09-1.16-.67-1.16l0-.58c.2,0,.37-.12.41-.41-.21,0-.37-.13-.37-.42.08-.95.58-2.15.83-3.4.29,0,.29.54.24,1.17.29,0,.75-1.7.83-2.66l-.49-.21c-.05.67-.05,1.58-.54,1.37.12-.58.25-2,.37-2.53l.71.87c-.05-.49.16-.62.08-1.24-2.36-.08-8.63,3.28-10.49,4.56l-.21.54.17.5a31.34,31.34,0,0,1-2,4l-2.61-1.12c-.13-1.29-1.91-1.82-1.46-2.9h-.66c.91-6.26,7.84-13,11.73-18.2a30.82,30.82,0,0,1,5.52-5.6c.29-.25,1.45.17,1.53-.62a8.66,8.66,0,0,1,2.32,1.16l-.74.25c0,.7,1-.08,1.2.08,1.53,1.33.66,3.57,1.45,4.77,0,.21,0,3.77-.66,4.14.08.09.12.09.25.17a17.89,17.89,0,0,0-.67,3.28c0,.49,1.54,1.9,1.41,3.73C238,18.2,237.2,18.37,236.49,18.45Zm-13.14,3.32a5.86,5.86,0,0,0-.45.74l3.15-1.66C225.51,20.44,224.14,21.35,223.35,21.77ZM225.14,20c-.34.13-.59.17-.88.29l-.49.71C223.93,20.94,224.89,20.6,225.14,20ZM235.25,5.85c-.79,0-2.69,2.36-4.48,4.72l-.2-.21c.12-.33.24-.58.08-.74-.66.74-1,1.12-.58,1.91-.62.82-1.2,1.57-1.74,2.23-.75,1-1.87,2.74-2.82,4.11a15.5,15.5,0,0,1,3.11-2.07,25.13,25.13,0,0,1,3.81-1.21,12.09,12.09,0,0,1,.71-2.44l.7.62c.5-1.29,1.08-4.64,1.54-6.51Zm-7.25,14v0c-.92,0-1.29.12-1.46.78C226.92,20.4,227.54,20.15,228,19.86Zm3.64,4.19-.16.53h.25l.16-.66Zm1.29-10c-.17.5.12.5.41.46l0-.46Zm.37-.66-.16,0-.17.46h.37Zm1.2-5.1h-.37l.33-1.12.38-.16Z"/><path class="cls-1" d="M259.09,3.57c2.74-.59,5.8-1.25,7.71-1.5,1.79.46,3.24,1.21,3.77,2.7-.7.62-.33,1.7.05,2.32a3.39,3.39,0,0,1-.67.29l-.08-.25a1.51,1.51,0,0,0-.58-.17.28.28,0,0,0-.29.29.85.85,0,0,0,.08.34c-2.48.49-6.13.16-9.57,1.66h-.58V8.79a1,1,0,0,0-.92.5c-1.41.16-1.86.7-2.73,3.31a3.37,3.37,0,0,1-.87,1.08l.37.21c-.21.87-.83,2.53-1.24,2.49s0-.88-.29-.83c-.46.08-.5,1-.71,1.66a3,3,0,0,1,.25,1.2c-.21.54-.41,1.45-.71,1.45s-.16-.79-.33-1.12c-.37.79-.66,1.53-.95,2.24l.33.2c.21-.37.42-.49.79-.41A61.47,61.47,0,0,0,250,27a8.9,8.9,0,0,1-2.69-.21l.16-.46c-1.08-.37-1-1.78-1.16-3.4A1.55,1.55,0,0,1,246,22c0-1,2.36-7.17,4.44-11.89h-3.24c-1.82,0-2,.58-3.27.24a8.8,8.8,0,0,1-1.37-4A1.86,1.86,0,0,1,243.09,5a32.63,32.63,0,0,0,8-.16c4.19-.87,2.36-4.81,6.22-4.81Zm-5.22,10.77-.42.75.25.29.33-.75Z"/><path class="cls-1" d="M288.07,18.2a.59.59,0,0,1-.54.87l-.29-.54c-.33.08-.58.25-.33.71-.45,0-1.2.37-1.2.83,0,.62-.71.41-1.2.53a16,16,0,0,0-1.33,1.66l-.46-.41c-1.07.66-.49,1.12-1.61,1.66a9.24,9.24,0,0,1-2.2.45c-.12.13.37.29.33.46l-.74.25L277.33,24c-.66.42-.16,1.37-1,1.66-1,.33-1.78.62-2.94,1a1.5,1.5,0,0,0-2.12,0,43.52,43.52,0,0,1-4.31-3.2c-1-.78-1.33-2.82-1.33-4.81C265.64,8.54,278.21,2,281.31,2c1.21,0,1.79.75,3.07,1.74,0,1.91,2,3.44,3.73,4.6s2.16,3.16,2.16,5.39A6,6,0,0,1,288.07,18.2ZM283.6,9.7c-.13-.37-.21-.62-.38-.45a.71.71,0,0,1-.45.24c-.29,0-.46-.33-.5-.33-2.2,0-6,2.53-7.75,5.27-2,1-3.36,3.31-4.27,6.17a12.42,12.42,0,0,0,2.94-.45L280.65,17a9.43,9.43,0,0,0,3.4-2.2l1.87-2.44Zm-10.29,4.64a1,1,0,0,0-1.45.67c0,.25.13.45.5.49Zm.17,11.53a1,1,0,0,0-.75-.46,1,1,0,0,0-.49.25Zm5.43-2.9c0,.12-.17.41-.08.49s.49,0,.7-.08C279.53,23.09,279.32,23,278.91,23Zm2.24-1.2c-.75.37-1,.58-1,1l1.21-.62Zm1.16-1-.66.71.16.45.83-.5C282.52,21.31,282.43,20.85,282.31,20.77Z"/></g></g></svg>